<?xml version="1.0" encoding="UTF-8" standalone="no"?>
<!-- Created with Inkscape (http://www.inkscape.org/) by Marsupilami -->
<svg
   xmlns:svg="http://www.w3.org/2000/svg"
   xmlns="http://www.w3.org/2000/svg"
   version="1.0"
   width="1024"
   height="422"
   viewBox="0 0 139.3125 57.46875"
   id="svg2921">
  <defs
     id="defs2923" />
  <g
     transform="translate(-305.34375,-503.62781)"
     id="layer1">
    <path
       d="M 397.65625,503.62781 C 403.42625,509.99781 411.96125,522.63406 414.9375,527.15906 C 412.51875,520.62281 406.52125,507.00281 397.65625,503.62781 z M 410.75,509.53406 C 413.8225,518.26156 416.4425,530.67656 417.21875,536.72156 C 418.25125,529.90031 417.65875,521.66781 416.34375,516.50281 C 415.62625,513.69156 413.095,510.52531 410.75,509.53406 z M 420.75,515.15906 C 420.80375,521.67781 418.55625,536.95281 416.0625,543.59656 C 421.585,536.48656 425.9375,528.12656 425.9375,522.12781 C 425.9375,518.99406 423.67625,516.82281 420.75,515.15906 z M 430.5,521.87781 C 425.92,532.68031 415.62625,546.13656 409.96875,552.03406 C 417.94875,546.51281 429.51625,536.15156 433.4375,530.50281 C 434.3625,529.17281 435.0625,528.39281 435.0625,527.00281 C 435.0625,524.72281 432.41625,523.04031 430.5,521.87781 z M 438.875,528.87781 C 428.6075,539.55406 408.1475,555.53531 397.9375,561.09656 C 410.8825,556.76656 429.6675,546.67156 442.71875,537.65906 C 443.81125,536.90531 444.65625,536.22406 444.65625,535.00281 C 444.65625,532.87156 440.76875,530.01531 438.875,528.87781 z"
       id="path2510"
       style="fill:#ffdd00;fill-opacity:1;fill-rule:nonzero;stroke:none" />
    <path
       d="M 352.53125,530.62781 C 351.27625,530.62781 350.25,531.62531 350.25,532.84656 C 350.25,534.07031 351.27625,535.06531 352.53125,535.06531 C 353.75375,535.06531 354.78125,534.07031 354.78125,532.84656 C 354.78125,531.59156 353.75375,530.62781 352.53125,530.62781 z M 313.53125,531.28406 C 308.34375,531.28406 305.34375,533.95156 305.34375,537.78406 C 305.34375,544.98781 315.09375,543.02906 315.09375,547.72156 C 315.09375,550.13406 313.10125,551.12781 310.65625,551.12781 C 309.0375,551.12781 307.28625,550.77781 306.03125,550.31531 L 305.84375,553.72156 C 307.1325,554.05281 308.725,554.25281 310.34375,554.25281 C 315.66375,554.25281 318.90625,551.28781 318.90625,547.19031 C 318.90625,540.21781 309.15625,541.87031 309.15625,537.40906 C 309.15625,535.55906 310.56875,534.25281 313.34375,534.25281 C 314.66625,534.25281 316.08625,534.48156 317.375,534.87781 L 317.5625,531.69031 C 316.2075,531.45906 314.8525,531.28406 313.53125,531.28406 z M 381,531.31531 L 377.5,532.28406 L 377.5,537.50281 L 374.34375,537.50281 L 374.34375,540.25281 L 377.5,540.25281 L 377.5,549.19031 C 377.5,552.85656 378.56,554.22156 382.0625,554.22156 C 383.15125,554.22156 384.35375,554.04656 385.3125,553.84656 L 385.3125,550.94031 C 384.68625,551.10406 383.9175,551.22156 383.1875,551.22156 C 381.5375,551.22156 381.03125,550.54281 381.03125,548.09656 L 381.03125,540.25281 L 385.3125,540.25281 L 385.3125,537.50281 L 381,537.50281 L 381,531.31531 z M 387.65625,531.31531 C 386.895,531.31531 386.28125,531.93031 386.28125,532.69031 C 386.28125,533.46531 386.8675,534.09656 387.65625,534.09656 C 388.40375,534.09656 389.03125,533.43906 389.03125,532.69031 C 389.03125,531.91031 388.43625,531.31531 387.65625,531.31531 z M 387.65625,531.59656 C 388.2625,531.59656 388.75,532.11406 388.75,532.72156 C 388.75,533.32781 388.2625,533.81531 387.65625,533.81531 C 387.04875,533.81531 386.5625,533.29781 386.5625,532.69031 C 386.5625,532.08281 387.04875,531.59656 387.65625,531.59656 z M 387.21875,531.90906 L 387.21875,533.47156 L 387.46875,533.47156 L 387.46875,532.75281 L 387.90625,533.47156 L 388.25,533.47156 L 387.90625,532.97156 C 387.84625,532.87781 387.785,532.79281 387.75,532.75281 C 388.00375,532.72531 388.15625,532.58281 388.15625,532.31531 C 388.15625,532.08281 388.02375,531.90906 387.65625,531.90906 L 387.21875,531.90906 z M 387.46875,532.12781 L 387.625,532.12781 C 387.82625,532.12781 387.90625,532.19281 387.90625,532.34656 C 387.90625,532.47406 387.82375,532.59656 387.5625,532.59656 L 387.46875,532.59656 L 387.46875,532.12781 z M 347.09375,537.12781 C 344.37698,537.11587 342.86953,539.05125 342.1875,541.12781 L 342.125,541.12781 C 342.35625,539.87156 342.4375,538.42656 342.4375,537.50281 L 339.09375,537.50281 L 339.09375,553.90906 L 342.625,553.90906 L 342.625,547.25281 C 342.625,542.33031 344.1975,540.03281 347.46875,540.62781 L 347.625,537.15906 C 347.43289,537.14046 347.27487,537.1286 347.09375,537.12781 z M 330.09375,537.15906 C 327.5825,537.15906 325.70625,538.48406 324.78125,540.56531 L 324.71875,540.56531 C 324.88375,539.67281 324.90625,538.36281 324.90625,537.50281 L 321.5625,537.50281 L 321.5625,561.09656 L 325.09375,561.09656 L 325.09375,553.94031 C 325.9525,554.10531 326.67,554.15906 327.59375,554.15906 C 333.07875,554.15906 336.125,550.68906 336.125,544.90906 C 336.125,539.95156 333.9925,537.15906 330.09375,537.15906 z M 367.4375,537.15906 C 364.66125,537.15906 362.67625,538.60781 361.71875,540.72156 L 361.6875,540.69031 C 361.8525,539.76656 361.90625,538.36281 361.90625,537.50281 L 358.53125,537.50281 L 358.53125,553.90906 L 362.0625,553.90906 L 362.0625,546.00281 C 362.0625,542.73156 363.8975,540.09656 366.375,540.09656 C 368.25875,540.09656 368.8125,541.29906 368.8125,543.34656 L 368.8125,553.90906 L 372.3125,553.90906 L 372.3125,542.40906 C 372.3125,539.50156 371.17,537.15906 367.4375,537.15906 z M 350.75,537.50281 L 350.75,553.90906 L 354.28125,553.90906 L 354.28125,537.50281 L 350.75,537.50281 z M 329.15625,540.06531 C 331.37,540.06531 332.40625,541.91906 332.40625,545.22156 C 332.40625,549.64906 330.495,551.37781 327.6875,551.37781 C 326.69625,551.37781 325.85375,551.26531 325.09375,551.03406 L 325.09375,546.00281 C 325.09375,543.19656 326.5125,540.06531 329.15625,540.06531 z M 423.03125,551.81531 L 423.03125,552.06531 L 423.625,552.06531 L 423.625,553.90906 L 423.90625,553.90906 L 423.90625,552.06531 L 424.53125,552.06531 L 424.53125,551.81531 L 423.03125,551.81531 z M 425.21875,551.81531 L 424.90625,553.90906 L 425.1875,553.90906 L 425.34375,552.72156 C 425.36875,552.51531 425.39375,552.36156 425.40625,552.19031 C 425.43125,552.32656 425.47875,552.50031 425.53125,552.65906 L 425.96875,553.90906 L 426.25,553.90906 L 426.71875,552.56531 C 426.76625,552.41531 426.79125,552.28906 426.8125,552.19031 C 426.825,552.31406 426.84125,552.48156 426.875,552.72156 L 427.0625,553.90906 L 427.375,553.90906 L 427.0625,551.81531 L 426.6875,551.81531 L 426.25,553.15906 C 426.2,553.30906 426.15625,553.41906 426.125,553.56531 C 426.1,553.44031 426.05375,553.28031 426,553.12781 L 425.5625,551.81531 L 425.21875,551.81531 z"
       id="path2530"
       style="fill:#000000;fill-opacity:1;fill-rule:nonzero;stroke:none" />
  </g>
</svg>
