<?xml version="1.0" encoding="UTF-8"?>
<svg width="26px" height="26px" viewBox="0 0 26 26" version="1.1" xmlns="http://www.w3.org/2000/svg" xmlns:xlink="http://www.w3.org/1999/xlink">
    <defs>
        <filter id="filter-1">
            <feColorMatrix in="SourceGraphic" type="matrix" values="0 0 0 0 0.847000 0 0 0 0 0.847000 0 0 0 0 0.847000 0 0 0 1.000000 0"></feColorMatrix>
        </filter>
    </defs>
    <g id="Symbols" stroke="none" stroke-width="1" fill="none" fill-rule="evenodd">
        <g id="Menu" transform="translate(-35.000000, -264.000000)">
            <path d="M0,0 L76,0 C87.045695,-2.02906125e-15 96,8.954305 96,20 L96,980 C96,991.045695 87.045695,1000 76,1000 L0,1000 L0,1000 L0,0 Z" id="BG" fill="#FFFFFF"></path>
            <g filter="url(#filter-1)" id="archive-outline">
                <g transform="translate(35.000000, 264.000000)">
                    <polygon id="Rectangle" fill="#000000" fill-rule="nonzero" opacity="0" transform="translate(13.000000, 13.000000) rotate(90.000000) translate(-13.000000, -13.000000) " points="3.18408168e-15 2.70616862e-15 26 2.70616862e-15 26 26 3.18408168e-15 26"></polygon>
                    <path d="M22.75,6.5 C22.75,4.70507456 21.2949254,3.25 19.5,3.25 L6.5,3.25 C5.16077004,3.25792961 3.96353197,4.08655516 3.48437383,5.33715792 C3.00521568,6.58776067 3.34226231,8.00423477 4.33333333,8.905 L4.33333333,19.5 C4.33333333,21.2949254 5.7884079,22.75 7.58333333,22.75 L18.4166667,22.75 C20.2115921,22.75 21.6666667,21.2949254 21.6666667,19.5 L21.6666667,8.905 C22.3514893,8.29249989 22.7450672,7.41875679 22.75,6.5 Z M6.5,5.41666667 L19.5,5.41666667 C20.0983085,5.41666667 20.5833333,5.90169152 20.5833333,6.5 C20.5833333,7.09830848 20.0983085,7.58333333 19.5,7.58333333 L6.5,7.58333333 C5.90169152,7.58333333 5.41666667,7.09830848 5.41666667,6.5 C5.41666667,5.90169152 5.90169152,5.41666667 6.5,5.41666667 Z M19.5,19.5 C19.5,20.0983085 19.0149751,20.5833333 18.4166667,20.5833333 L7.58333333,20.5833333 C6.98502485,20.5833333 6.5,20.0983085 6.5,19.5 L6.5,9.75 L19.5,9.75 L19.5,19.5 Z" id="Shape" fill="#000000" fill-rule="nonzero"></path>
                    <rect id="Rectangle" fill="#000000" fill-rule="nonzero" x="9.75" y="13" width="6.5" height="2.16666667" rx="0.87"></rect>
                </g>
            </g>
        </g>
    </g>
</svg>