<?xml version="1.0" encoding="UTF-8"?>
<svg width="26px" height="26px" viewBox="0 0 26 26" version="1.1" xmlns="http://www.w3.org/2000/svg" xmlns:xlink="http://www.w3.org/1999/xlink">
    <defs>
        <filter id="filter-1">
            <feColorMatrix in="SourceGraphic" type="matrix" values="0 0 0 0 0.847000 0 0 0 0 0.847000 0 0 0 0 0.847000 0 0 0 1.000000 0"></feColorMatrix>
        </filter>
    </defs>
    <g id="Symbols" stroke="none" stroke-width="1" fill="none" fill-rule="evenodd">
        <g id="Menu" transform="translate(-35.000000, -203.000000)">
            <path d="M0,0 L76,0 C87.045695,-2.02906125e-15 96,8.954305 96,20 L96,980 C96,991.045695 87.045695,1000 76,1000 L0,1000 L0,1000 L0,0 Z" id="BG" fill="#FFFFFF"></path>
            <g filter="url(#filter-1)" id="credit-card-outline">
                <g transform="translate(35.000000, 203.000000)">
                    <rect id="Rectangle" fill="#000000" fill-rule="nonzero" opacity="0" x="0" y="0" width="26" height="26"></rect>
                    <path d="M20.5833333,5.41666667 L5.41666667,5.41666667 C3.62174123,5.41666667 2.16666667,6.87174123 2.16666667,8.66666667 L2.16666667,17.3333333 C2.16666667,19.1282588 3.62174123,20.5833333 5.41666667,20.5833333 L20.5833333,20.5833333 C22.3782588,20.5833333 23.8333333,19.1282588 23.8333333,17.3333333 L23.8333333,8.66666667 C23.8333333,6.87174123 22.3782588,5.41666667 20.5833333,5.41666667 Z M4.33333333,8.66666667 C4.33333333,8.06835819 4.81835819,7.58333333 5.41666667,7.58333333 L20.5833333,7.58333333 C21.1816418,7.58333333 21.6666667,8.06835819 21.6666667,8.66666667 L21.6666667,9.75 L4.33333333,9.75 L4.33333333,8.66666667 Z M21.6666667,17.3333333 C21.6666667,17.9316418 21.1816418,18.4166667 20.5833333,18.4166667 L5.41666667,18.4166667 C4.81835819,18.4166667 4.33333333,17.9316418 4.33333333,17.3333333 L4.33333333,11.9166667 L21.6666667,11.9166667 L21.6666667,17.3333333 Z" id="Shape" fill="#000000" fill-rule="nonzero"></path>
                    <path d="M7.58333333,16.25 L11.9166667,16.25 C12.5149751,16.25 13,15.7649751 13,15.1666667 C13,14.5683582 12.5149751,14.0833333 11.9166667,14.0833333 L7.58333333,14.0833333 C6.98502485,14.0833333 6.5,14.5683582 6.5,15.1666667 C6.5,15.7649751 6.98502485,16.25 7.58333333,16.25 Z" id="Path" fill="#000000" fill-rule="nonzero"></path>
                    <path d="M16.25,16.25 L18.4166667,16.25 C19.0149751,16.25 19.5,15.7649751 19.5,15.1666667 C19.5,14.5683582 19.0149751,14.0833333 18.4166667,14.0833333 L16.25,14.0833333 C15.6516915,14.0833333 15.1666667,14.5683582 15.1666667,15.1666667 C15.1666667,15.7649751 15.6516915,16.25 16.25,16.25 Z" id="Path" fill="#000000" fill-rule="nonzero"></path>
                </g>
            </g>
        </g>
    </g>
</svg>