<?xml version="1.0" encoding="UTF-8"?>
<svg width="17px" height="20px" viewBox="0 0 17 20" version="1.1" xmlns="http://www.w3.org/2000/svg" xmlns:xlink="http://www.w3.org/1999/xlink">
    <defs>
        <path d="M8.11969167,10.3095417 C5.91835833,12.6917917 5.96494167,16.4682917 8.25944167,18.8072083 C9.37960833,19.9522917 10.8681083,20.583875 12.4541083,20.5849583 L12.459525,20.5849583 C14.048775,20.5849583 15.5426917,19.953375 16.668275,18.8072083 C19.0039417,16.4260417 18.9996083,12.553125 16.658525,10.1752083 L13.4236917,6.86995833 C13.096525,9.55879167 12.0879417,11.9182917 10.291775,11.9182917 C9.74144167,11.9182917 8.84444167,11.6734583 8.11969167,10.3095417 L8.11969167,10.3095417 Z M12.459525,22.751625 L12.4519417,22.751625 C10.278775,22.7494583 8.23994167,21.8882083 6.71135833,20.3227917 C3.554525,17.1052917 3.55019167,11.8695417 6.70160833,8.65745833 L7.766525,7.580625 C8.04169167,7.30545833 8.44144167,7.19929167 8.819525,7.297875 C9.19544167,7.39970833 9.48794167,7.69545833 9.58544167,8.07245833 C9.83460833,9.03554167 10.1314417,9.50895833 10.295025,9.68879167 C10.6796083,9.283625 11.3751083,7.64670833 11.3751083,4.876625 C11.3751083,4.717375 11.3751083,4.56679167 11.3664417,4.41620833 C11.3458583,4.096625 11.468275,3.78354167 11.7001083,3.56254167 C12.1301917,3.154125 12.8191917,3.154125 13.2319417,3.57879167 L18.2044417,8.65854167 C21.367775,11.8695417 21.3731917,17.1052917 18.215275,20.323875 C16.678025,21.890375 14.6348583,22.751625 12.459525,22.751625 L12.459525,22.751625 Z" id="path-1"></path>
    </defs>
    <g id="Symbols" stroke="none" stroke-width="1" fill="none" fill-rule="evenodd">
        <g id="Menu" transform="translate(-39.000000, -389.000000)">
            <path d="M0,0 L76,0 C87.045695,-2.02906125e-15 96,8.954305 96,20 L96,980 C96,991.045695 87.045695,1000 76,1000 L0,1000 L0,1000 L0,0 Z" id="BG" fill="#FFFFFF"></path>
            <g id="Icon-6" transform="translate(35.000000, 386.000000)">
                <mask id="mask-2" fill="white">
                    <use xlink:href="#path-1"></use>
                </mask>
                <use id="Color" fill="#000000" opacity="0.200000003" xlink:href="#path-1"></use>
            </g>
        </g>
    </g>
</svg>