<?xml version="1.0" encoding="UTF-8"?>
<svg width="22px" height="22px" viewBox="0 0 22 22" version="1.1" xmlns="http://www.w3.org/2000/svg" xmlns:xlink="http://www.w3.org/1999/xlink">
    <defs>
        <path d="M4.7697,12.5906083 C5.9787,13.005525 6.94178333,14.0173583 7.34478333,15.300025 L7.38811667,15.430025 C7.84961667,16.7906917 7.6622,18.2553583 6.8887,19.3538583 C6.74786667,19.5531917 6.77928333,19.791525 6.9277,19.9041917 L9.17236667,21.6093583 C9.25145,21.6689417 9.32836667,21.6689417 9.37603333,21.663525 C9.4302,21.6548583 9.50928333,21.6256083 9.5732,21.5346083 L9.82345,21.179275 C10.5698667,20.1208583 11.7723667,19.4676083 13.0420333,19.430775 C14.4677,19.401525 15.7482,20.054775 16.5455333,21.2063583 L16.6733667,21.3916083 C16.7372833,21.4826083 16.8152833,21.5129417 16.8705333,21.5216083 C16.9182,21.5313583 16.9962,21.5281083 17.0742,21.4674417 L19.30695,19.7828583 C19.46295,19.6658583 19.4976167,19.4156083 19.3817,19.2476917 L19.1000333,18.8414417 C18.3742,17.792775 18.1586167,16.4321083 18.5237,15.202525 C18.9202,13.863525 19.9287833,12.804025 21.2233667,12.3706917 L21.4411167,12.297025 C21.6155333,12.2396083 21.7097833,12.0229417 21.6480333,11.8236083 L20.79545,9.092525 C20.7553667,8.96469167 20.6730333,8.907275 20.6275333,8.88344167 C20.5625333,8.84985833 20.4921167,8.84444167 20.42495,8.86719167 L20.0566167,8.98960833 C18.7967,9.40885833 17.4067833,9.18135833 16.3397,8.37860833 L16.2227,8.29085833 C15.2087,7.52819167 14.6052833,6.29860833 14.6096167,5.00294167 L14.6117833,4.69960833 C14.6117833,4.555525 14.5435333,4.46560833 14.5023667,4.42444167 C14.4633667,4.38435833 14.3972833,4.33669167 14.3041167,4.33669167 L11.5448667,4.33344167 C11.3758667,4.33344167 11.2382833,4.49485833 11.2372,4.69419167 L11.2361167,4.95635833 C11.2307,6.27260833 10.6142833,7.52494167 9.58728333,8.30819167 L9.44753333,8.41435833 C8.31761667,9.27344167 6.84428333,9.51610833 5.50961667,9.06110833 C5.4587,9.043775 5.41103333,9.047025 5.36553333,9.07085833 C5.33086667,9.08819167 5.26803333,9.13260833 5.2377,9.23119167 L4.35261667,12.043525 C4.2887,12.248275 4.39378333,12.4616917 4.59203333,12.5299417 L4.7697,12.5906083 Z M9.33161667,23.8334417 C8.80511667,23.8334417 8.29378333,23.662275 7.86261667,23.334025 L5.61795,21.6299417 C4.54545,20.8174417 4.3082,19.2541917 5.0882,18.1459417 C5.49336667,17.571775 5.57678333,16.834025 5.33845,16.1341917 L5.27886667,15.9521917 C5.08061667,15.3216917 4.62778333,14.832025 4.0677,14.640275 L4.06661667,14.640275 L3.89003333,14.578525 C2.57053333,14.126775 1.86636667,12.7281917 2.28561667,11.393525 L3.16961667,8.582275 C3.37003333,7.94635833 3.80228333,7.43285833 4.38728333,7.13710833 C4.95928333,6.84894167 5.60603333,6.804525 6.21053333,7.01144167 C6.85945,7.23244167 7.57986667,7.11219167 8.13561667,6.68969167 L8.27536667,6.583525 C8.76936667,6.206525 9.06728333,5.59444167 9.06945,4.94769167 L9.07053333,4.68660833 C9.07595,3.29560833 10.1863667,2.166775 11.5437833,2.166775 L11.5481167,2.166775 L14.3073667,2.170025 C14.9595333,2.17110833 15.5748667,2.42894167 16.0385333,2.89585833 C16.51845,3.37794167 16.7806167,4.022525 16.77845,4.71044167 L16.7762833,5.01269167 C16.7741167,5.62585833 17.0547,6.20544167 17.5281167,6.560775 L17.6440333,6.648525 C18.1412833,7.022275 18.7891167,7.129525 19.3708667,6.934525 L19.7381167,6.81210833 C20.3632,6.60410833 21.0283667,6.655025 21.61445,6.95510833 C22.2157,7.262775 22.6598667,7.792525 22.8635333,8.44794167 L23.7161167,11.179025 C24.1277833,12.498525 23.41495,13.922025 22.1290333,14.3521083 L21.9112833,14.4246917 C21.2872833,14.6348583 20.7965333,15.1548583 20.60045,15.8178583 C20.4206167,16.4256083 20.5246167,17.094025 20.8810333,17.607525 L21.1627,18.013775 C21.9362,19.131775 21.6892,20.7004417 20.6123667,21.5118583 L18.3796167,23.197525 C17.8433667,23.6026917 17.1857833,23.766275 16.5260333,23.6611917 C15.8608667,23.5539417 15.2802,23.1856083 14.8912833,22.6244417 L14.76345,22.4381083 C14.3842833,21.8921083 13.7776167,21.5606083 13.1417,21.5963583 C12.5047,21.6136917 11.9543667,21.9159417 11.5947,22.427275 L11.34445,22.7826083 C10.9522833,23.3383583 10.3705333,23.701275 9.70861667,23.805275 C9.58186667,23.824775 9.4562,23.8334417 9.33161667,23.8334417 L9.33161667,23.8334417 Z M13,11.375 C12.1040833,11.375 11.375,12.1040833 11.375,13 C11.375,13.8959167 12.1040833,14.625 13,14.625 C13.8959167,14.625 14.625,13.8959167 14.625,13 C14.625,12.1040833 13.8959167,11.375 13,11.375 M13,16.7916667 C10.9091667,16.7916667 9.20833333,15.0908333 9.20833333,13 C9.20833333,10.9091667 10.9091667,9.20833333 13,9.20833333 C15.0908333,9.20833333 16.7916667,10.9091667 16.7916667,13 C16.7916667,15.0908333 15.0908333,16.7916667 13,16.7916667" id="path-1"></path>
    </defs>
    <g id="Symbols" stroke="none" stroke-width="1" fill="none" fill-rule="evenodd">
        <g id="Menu" transform="translate(-37.000000, -941.000000)">
            <path d="M0,0 L76,0 C87.045695,-2.02906125e-15 96,8.954305 96,20 L96,980 C96,991.045695 87.045695,1000 76,1000 L0,1000 L0,1000 L0,0 Z" id="BG" fill="#FFFFFF"></path>
            <g id="Icon-8" transform="translate(35.000000, 939.000000)">
                <mask id="mask-2" fill="white">
                    <use xlink:href="#path-1"></use>
                </mask>
                <use id="Color" fill="#000000" opacity="0.200000003" xlink:href="#path-1"></use>
            </g>
        </g>
    </g>
</svg>