<?xml version="1.0" encoding="UTF-8"?>
<svg width="22px" height="18px" viewBox="0 0 22 18" version="1.1" xmlns="http://www.w3.org/2000/svg" xmlns:xlink="http://www.w3.org/1999/xlink">
    <defs>
        <path d="M15.5231917,21.6672083 C15.4506083,21.6672083 15.3758583,21.6639583 15.3011083,21.656375 C14.347775,21.562125 13.600275,20.889375 13.3944417,19.9414583 L10.4878583,6.51679167 L7.49460833,13.430625 C7.32235833,13.827125 6.931275,14.083875 6.50010833,14.083875 L3.25010833,14.083875 C2.651025,14.083875 2.166775,13.5985417 2.166775,13.0005417 C2.166775,12.4014583 2.651025,11.9172083 3.25010833,11.9172083 L5.78944167,11.9172083 L8.504275,5.64579167 C8.88885833,4.76179167 9.736025,4.24720833 10.6991083,4.343625 C11.6524417,4.437875 12.3999417,5.110625 12.605775,6.05854167 L15.5123583,19.4832083 L18.5056083,12.569375 C18.6778583,12.172875 19.0678583,11.9172083 19.5001083,11.9172083 L22.7501083,11.9172083 C23.3491917,11.9172083 23.8334417,12.4014583 23.8334417,13.0005417 C23.8334417,13.5985417 23.3491917,14.083875 22.7501083,14.083875 L20.210775,14.083875 L17.4959417,20.3542083 C17.1416917,21.1699583 16.382275,21.6672083 15.5231917,21.6672083" id="path-1"></path>
    </defs>
    <g id="Symbols" stroke="none" stroke-width="1" fill="none" fill-rule="evenodd">
        <g id="Menu" transform="translate(-37.000000, -329.000000)">
            <path d="M0,0 L76,0 C87.045695,-2.02906125e-15 96,8.954305 96,20 L96,980 C96,991.045695 87.045695,1000 76,1000 L0,1000 L0,1000 L0,0 Z" id="BG" fill="#FFFFFF"></path>
            <g id="Icon-3" transform="translate(35.000000, 325.000000)">
                <mask id="mask-2" fill="white">
                    <use xlink:href="#path-1"></use>
                </mask>
                <use id="Color" fill="#000000" opacity="0.200000003" xlink:href="#path-1"></use>
            </g>
        </g>
    </g>
</svg>