<?xml version="1.0" encoding="UTF-8"?>
<svg width="17px" height="22px" viewBox="0 0 17 22" version="1.1" xmlns="http://www.w3.org/2000/svg" xmlns:xlink="http://www.w3.org/1999/xlink">
    <g id="Symbols" stroke="none" stroke-width="1" fill="none" fill-rule="evenodd">
        <g id="Menu" transform="translate(-39.000000, -144.000000)">
            <path d="M0,0 L76,0 C87.045695,-2.02906125e-15 96,8.954305 96,20 L96,980 C96,991.045695 87.045695,1000 76,1000 L0,1000 L0,1000 L0,0 Z" id="BG" fill="#FFFFFF"></path>
            <g id="Icon-1" transform="translate(35.000000, 142.000000)" fill="#000000">
                <path d="M20.5833333,22.6296296 C20.5833333,23.2940741 20.064494,23.8333333 19.422619,23.8333333 C18.780744,23.8333333 18.2619048,23.2940741 18.2619048,22.6296296 C18.2619048,19.3110185 15.6584226,16.6111111 12.4583333,16.6111111 C9.25824405,16.6111111 6.6547619,19.3110185 6.6547619,22.6296296 C6.6547619,23.2940741 6.13592262,23.8333333 5.49404762,23.8333333 C4.85217262,23.8333333 4.33333333,23.2940741 4.33333333,22.6296296 C4.33333333,17.9833333 7.9791369,14.2037037 12.4583333,14.2037037 C16.9375298,14.2037037 20.5833333,17.9833333 20.5833333,22.6296296 M12.4583333,4.57407407 C13.7386012,4.57407407 14.7797619,5.6537963 14.7797619,6.98148148 C14.7797619,8.30916667 13.7386012,9.38888889 12.4583333,9.38888889 C11.1780655,9.38888889 10.1369048,8.30916667 10.1369048,6.98148148 C10.1369048,5.6537963 11.1780655,4.57407407 12.4583333,4.57407407 M12.4583333,11.7962963 C15.018869,11.7962963 17.1011905,9.63685185 17.1011905,6.98148148 C17.1011905,4.32611111 15.018869,2.16666667 12.4583333,2.16666667 C9.89779762,2.16666667 7.81547619,4.32611111 7.81547619,6.98148148 C7.81547619,9.63685185 9.89779762,11.7962963 12.4583333,11.7962963" id="Color"></path>
            </g>
        </g>
    </g>
</svg>